<svg width="18" height="12" viewBox="0 0 18 12" fill="none" xmlns="http://www.w3.org/2000/svg">
<path d="M1.99299 6.984C1.77577 6.98378 1.56438 7.0543 1.39079 7.1849C1.21721 7.31549 1.09087 7.49906 1.03088 7.70784C0.970889 7.91662 0.980513 8.13925 1.05829 8.34207C1.13608 8.54489 1.27779 8.71687 1.46199 8.832L4.14999 11.52C4.2429 11.6128 4.35319 11.6865 4.47456 11.7367C4.59593 11.7869 4.726 11.8127 4.85735 11.8127C4.9887 11.8127 5.11875 11.7867 5.24008 11.7364C5.36141 11.6861 5.47165 11.6124 5.56449 11.5195C5.65734 11.4266 5.73097 11.3163 5.7812 11.1949C5.83142 11.0736 5.85724 10.9435 5.8572 10.8121C5.85715 10.6808 5.83123 10.5507 5.78093 10.4294C5.73062 10.3081 5.6569 10.1978 5.56399 10.105L4.44299 8.985H11.993C12.2582 8.985 12.5126 8.87964 12.7001 8.69211C12.8876 8.50457 12.993 8.25022 12.993 7.985C12.993 7.71978 12.8876 7.46543 12.7001 7.27789C12.5126 7.09036 12.2582 6.985 11.993 6.985H1.99299V6.984Z" fill="#FF7A2F"/>
<path d="M16.007 5.016C16.2242 5.01622 16.4356 4.9457 16.6092 4.8151C16.7828 4.68451 16.9091 4.50094 16.9691 4.29216C17.0291 4.08339 17.0195 3.86075 16.9417 3.65793C16.8639 3.45511 16.7222 3.28313 16.538 3.168L13.85 0.480001C13.6623 0.292492 13.4079 0.187204 13.1426 0.187298C12.8774 0.187392 12.623 0.29286 12.4355 0.480501C12.248 0.668141 12.1427 0.922584 12.1428 1.18785C12.1429 1.45312 12.2483 1.70749 12.436 1.895L13.557 3.015H6.00699C5.74177 3.015 5.48742 3.12036 5.29988 3.30789C5.11235 3.49543 5.00699 3.74978 5.00699 4.015C5.00699 4.28022 5.11235 4.53457 5.29988 4.72211C5.48742 4.90964 5.74177 5.015 6.00699 5.015H16.007V5.016Z" fill="#FF7A2F"/>
</svg>
