<svg width="33" height="33" viewBox="0 0 33 33" fill="none" xmlns="http://www.w3.org/2000/svg">
<path d="M27.8438 4.125H1.03125V24.75H27.8438V4.125ZM25.7812 22.6875H3.09375V6.1875H25.7812V22.6875Z" fill="#FF7A2F"/>
<path d="M29.9062 9.28125V26.8125H6.1875V28.875H31.9688V9.28125H29.9062Z" fill="#FF7A2F"/>
<path d="M14.4375 19.4945C16.9963 19.4945 19.0781 17.2298 19.0781 14.4461C19.0781 11.6625 16.9963 9.39778 14.4375 9.39778C11.8787 9.39778 9.79688 11.6624 9.79688 14.4461C9.79688 17.2299 11.8787 19.4945 14.4375 19.4945ZM14.4375 11.4603C15.8591 11.4603 17.0156 12.7997 17.0156 14.4461C17.0156 16.0925 15.8591 17.432 14.4375 17.432C13.0159 17.432 11.8594 16.0925 11.8594 14.4461C11.8594 12.7997 13.0159 11.4603 14.4375 11.4603Z" fill="#FF7A2F"/>
<path d="M5.15625 8.76562H7.21875V20.1094H5.15625V8.76562Z" fill="#FF7A2F"/>
<path d="M21.6562 8.76562H23.7188V20.1094H21.6562V8.76562Z" fill="#FF7A2F"/>
</svg>
