<svg width="34" height="24" viewBox="0 0 34 24" fill="none" xmlns="http://www.w3.org/2000/svg">
<path d="M15.5294 7.05882C15.5294 10.1788 13.0024 12.7059 9.88235 12.7059C6.76235 12.7059 4.23529 10.1788 4.23529 7.05882C4.23529 3.93882 6.76235 1.41176 9.88235 1.41176C13.0024 1.41176 15.5294 3.93882 15.5294 7.05882ZM15.5294 16.5459V24H0V21.1765C0 18.0565 4.41882 15.5294 9.88235 15.5294C12 15.5294 13.9341 15.9106 15.5294 16.5459ZM33.8824 24H18.3529V0H33.8824V24ZM22.5882 12C22.5882 11.0639 22.9601 10.1662 23.622 9.50433C24.2839 8.84244 25.1816 8.47059 26.1176 8.47059C27.0537 8.47059 27.9514 8.84244 28.6133 9.50433C29.2752 10.1662 29.6471 11.0639 29.6471 12C29.6471 12.9361 29.2752 13.8338 28.6133 14.4957C27.9514 15.1576 27.0537 15.5294 26.1176 15.5294C25.1816 15.5294 24.2839 15.1576 23.622 14.4957C22.9601 13.8338 22.5882 12.9361 22.5882 12ZM31.0588 5.64706C30.31 5.64706 29.5918 5.34958 29.0623 4.82007C28.5328 4.29055 28.2353 3.57238 28.2353 2.82353H24C24 4.39059 22.7435 5.64706 21.1765 5.64706V18.3529C21.9253 18.3529 22.6435 18.6504 23.173 19.1799C23.7025 19.7094 24 20.4276 24 21.1765H28.2353C28.2353 19.6235 29.5059 18.3529 31.0588 18.3529V5.64706Z" fill="#FF7A2F"/>
</svg>
