<svg width="28" height="28" viewBox="0 0 28 28" fill="none" xmlns="http://www.w3.org/2000/svg">
<path d="M10.3125 6.1875V10.3125H6.1875V6.1875H10.3125ZM12.375 4.125H4.125V12.375H12.375V4.125ZM10.3125 17.1875V21.3125H6.1875V17.1875H10.3125ZM12.375 15.125H4.125V23.375H12.375V15.125ZM21.3125 6.1875V10.3125H17.1875V6.1875H21.3125ZM23.375 4.125H15.125V12.375H23.375V4.125ZM15.125 15.125H17.1875V17.1875H15.125V15.125ZM17.1875 17.1875H19.25V19.25H17.1875V17.1875ZM19.25 15.125H21.3125V17.1875H19.25V15.125ZM15.125 19.25H17.1875V21.3125H15.125V19.25ZM17.1875 21.3125H19.25V23.375H17.1875V21.3125ZM19.25 19.25H21.3125V21.3125H19.25V19.25ZM21.3125 17.1875H23.375V19.25H21.3125V17.1875ZM21.3125 21.3125H23.375V23.375H21.3125V21.3125ZM27.5 6.875H24.75V2.75H20.625V0H27.5V6.875ZM27.5 27.5V20.625H24.75V24.75H20.625V27.5H27.5ZM0 27.5H6.875V24.75H2.75V20.625H0V27.5ZM0 0V6.875H2.75V2.75H6.875V0H0Z" fill="#FF7A2F"/>
</svg>
