<svg width="61" height="70" viewBox="0 0 61 70" fill="none" xmlns="http://www.w3.org/2000/svg">
<g clip-path="url(#clip0)">
<path d="M52.2504 60.932H47.8981V62.2241C47.8981 64.6269 47.2294 66.5424 45.892 67.9705C44.5546 69.3986 42.9338 69.9086 41.0297 69.5006L6.89143 62.7681C4.98731 62.4054 3.36653 61.2493 2.02911 59.2999C0.69169 57.3504 0.0229797 55.1743 0.0229797 52.7715V8.70457C0.0229797 6.30175 0.873035 4.25028 2.57315 2.55017C4.27326 0.850056 6.32473 0 8.72755 0H52.2504C54.6532 0 56.7047 0.850056 58.4048 2.55017C60.1049 4.25028 60.955 6.30175 60.955 8.70457V52.2274C60.955 54.6302 60.1049 56.6817 58.4048 58.3818C56.7047 60.0819 54.6532 60.932 52.2504 60.932ZM8.72755 28.3579C8.72755 30.4433 9.40759 32.3475 10.7677 34.0702C10.949 34.3423 11.4364 34.7729 12.2298 35.3623C13.0232 35.9517 13.7259 36.5751 14.3379 37.2324C14.95 37.8898 15.256 38.5359 15.256 39.1706V47.8751C15.256 48.5552 15.97 49.1786 17.3981 49.7453C18.8262 50.312 21.0137 50.958 23.9605 51.6834C25.7287 52.1368 27.2588 52.3068 28.5508 52.1934C29.8429 52.0801 30.8517 51.8194 31.577 51.4114C32.3024 51.0033 32.6651 50.55 32.6651 50.0513V41.3467C32.6651 40.712 32.9711 40.1113 33.5832 39.5446C34.1952 38.9779 34.9206 38.4679 35.7593 38.0145C36.598 37.5611 37.0854 37.2664 37.2214 37.1304C37.4481 36.9491 37.7768 36.7451 38.2075 36.5184C38.6382 36.2917 38.9102 36.0537 39.0235 35.8043C39.1369 35.555 39.1936 35.113 39.1936 34.4783C39.1936 32.4381 38.5362 30.5567 37.2214 28.8339C35.9067 27.1111 34.3426 26.0684 32.5291 25.7057C31.3957 25.479 30.3303 25.5923 29.3329 26.0457C27.9728 23.7336 26.1707 22.3508 23.9265 21.8974C21.6824 21.4441 19.903 22.1014 18.5882 23.8696C17.5455 23.0535 16.4801 22.5321 15.392 22.3055C13.5332 21.9428 11.9578 22.3508 10.6657 23.5295C9.37359 24.7083 8.72755 26.3177 8.72755 28.3579ZM56.6027 11.8328C56.6027 9.74731 55.866 7.97919 54.3925 6.52843C52.9191 5.07767 51.1623 4.35229 49.1222 4.35229H17.5001L41.0297 8.97659C42.9338 9.38461 44.5546 10.5634 45.892 12.5128C47.2294 14.4623 47.8981 16.6158 47.8981 18.9732V56.5797H49.1222C51.1623 56.5797 52.9191 55.843 54.3925 54.3696C55.866 52.8961 56.6027 51.1394 56.6027 49.0992V11.8328Z" fill="#FF7A2F"/>
</g>
<defs>
<clipPath id="clip0">
<rect width="61" height="69.6366" fill="white"/>
</clipPath>
</defs>
</svg>
