<svg width="28" height="28" viewBox="0 0 28 28" fill="none" xmlns="http://www.w3.org/2000/svg">
<path d="M0 3.5V0H0.175C15.575 0 28 12.425 28 27.825V28H24.5V27.825C24.5 14.35 13.65 3.5 0 3.5ZM0 10.5V7C5.56955 7 10.911 9.21249 14.8492 13.1508C18.7875 17.089 21 22.4305 21 28H17.5C17.5 25.7019 17.0473 23.4262 16.1679 21.303C15.2884 19.1798 13.9994 17.2507 12.3744 15.6256C10.7493 14.0006 8.82016 12.7116 6.69696 11.8321C4.57376 10.9527 2.29813 10.5 0 10.5ZM0 17.5V14C3.71303 14 7.27399 15.475 9.8995 18.1005C12.525 20.726 14 24.287 14 28H10.5C10.5 25.2152 9.39375 22.5445 7.42462 20.5754C5.45549 18.6062 2.78477 17.5 0 17.5ZM0 21C1.85652 21 3.63699 21.7375 4.94975 23.0503C6.2625 24.363 7 26.1435 7 28H0V21Z" fill="#FF7A2F"/>
</svg>
